<?xml version="1.0" standalone="no"?>
<!DOCTYPE svg PUBLIC "-//W3C//DTD SVG 20010904//EN"
 "http://www.w3.org/TR/2001/REC-SVG-20010904/DTD/svg10.dtd">
<svg version="1.0" xmlns="http://www.w3.org/2000/svg"
 width="82.000000pt" height="37.000000pt" viewBox="0 0 82.000000 37.000000"
 preserveAspectRatio="xMidYMid meet">

<g transform="translate(0.000000,37.000000) scale(0.100000,-0.100000)"
fill="#000000" stroke="none">
<path d="M48 355 c-35 -19 -40 -39 -42 -156 -1 -96 0 -99 22 -99 12 0 25 -1
30 -2 4 -2 9 44 12 102 5 104 5 105 30 105 33 0 40 -39 11 -55 -14 -7 -21 -21
-21 -39 0 -25 3 -27 30 -23 38 6 70 45 70 88 0 46 -8 63 -41 79 -35 19 -66 18
-101 0z"/>
<path d="M277 359 c-32 -19 -47 -73 -47 -169 l0 -90 35 0 34 0 3 98 c3 92 4
97 26 100 18 3 22 -1 22 -22 0 -16 -6 -26 -15 -26 -10 0 -15 -10 -15 -30 0
-20 5 -30 15 -30 11 0 15 -12 15 -45 0 -45 0 -45 36 -45 l36 0 -4 111 c-3 107
-4 112 -31 135 -30 26 -78 31 -110 13z"/>
<path d="M493 363 c-27 -4 -33 -9 -33 -29 0 -19 5 -24 25 -24 24 0 24 -1 27
-107 l3 -107 30 0 30 0 3 107 c3 106 3 107 27 107 20 0 25 5 25 25 0 22 -5 25
-32 25 -18 0 -42 2 -53 4 -11 2 -35 1 -52 -1z"/>
<path d="M745 360 c-77 -23 -116 -118 -80 -194 20 -42 53 -63 110 -68 37 -3
40 -1 43 23 3 23 -2 27 -29 33 -48 9 -69 33 -69 76 0 43 21 67 69 76 27 6 32
10 29 33 -3 29 -24 35 -73 21z"/>
</g>
</svg>
